<?xml version="1.0" encoding="UTF-8"?>
<svg width="512" height="512" viewBox="0 0 512 512" fill="none" xmlns="http://www.w3.org/2000/svg">
  <!-- Sfondo circolare con gradiente -->
  <circle cx="256" cy="256" r="248" fill="url(#paint0_linear)" stroke="#2196f3" stroke-width="16"/>
  
  <!-- Simbolo del cuore stilizzato -->
  <path d="M256 352c-1.5 0-3-.4-4.3-1.2-1.3-.8-32.5-20.1-63.9-46.6-31.4-26.5-56.8-52.8-56.8-76.2 0-37.5 30.5-68 68-68 19.4 0 37.1 8.2 48 21.3 10.9-13.1 28.6-21.3 48-21.3 37.5 0 68 30.5 68 68 0 23.4-25.4 49.7-56.8 76.2-31.4 26.5-62.6 45.8-63.9 46.6-1.3.8-2.8 1.2-4.3 1.2z" 
        fill="#ffffff" 
        filter="url(#shadow)"/>

  <!-- Croce medica -->
  <path d="M256 192v128M192 256h128" 
        stroke="#ffffff" 
        stroke-width="24" 
        stroke-linecap="round"
        filter="url(#shadow)"/>

  <!-- Definizioni dei gradienti e filtri -->
  <defs>
    <linearGradient id="paint0_linear" x1="0" y1="0" x2="512" y2="512" gradientUnits="userSpaceOnUse">
      <stop offset="0%" stop-color="#2196f3"/>
      <stop offset="100%" stop-color="#1976d2"/>
    </linearGradient>
    
    <filter id="shadow" x="-2" y="-2" width="516" height="516" filterUnits="userSpaceOnUse">
      <feDropShadow dx="0" dy="2" stdDeviation="3" flood-opacity="0.3"/>
    </filter>
  </defs>
</svg> 