<?xml version="1.0" encoding="UTF-8" standalone="no"?>
<svg width="512" height="512" viewBox="0 0 512 512" fill="none" xmlns="http://www.w3.org/2000/svg">
  <!-- Sfondo circolare con gradiente -->
  <circle cx="256" cy="220" r="180" fill="url(#paint0_linear)" />
  
  <!-- Foglia stilizzata -->
  <path d="M256 130C220 130 190 160 190 196C190 232 240 290 256 314C272 290 322 232 322 196C322 160 292 130 256 130Z" fill="#ffffff" />
  
  <!-- Iniziale "S" stilizzata -->
  <path d="M256 165C240 165 228 177 228 193C228 209 254 225 256 235C258 225 284 209 284 193C284 177 272 165 256 165Z" fill="#4FC1E9" />
  
  <!-- Cerchio esterno -->
  <circle cx="256" cy="220" r="180" stroke="#ffffff" stroke-width="6" stroke-opacity="0.5" />
  
  <!-- Testo Salus -->
  <path d="M149 384C149 379.6 149.8 375.733 151.4 372.4C153 369.067 155.4 366.467 158.6 364.6C161.8 362.733 165.8 361.8 170.6 361.8C177.133 361.8 182.333 363.733 186.2 367.6C190.067 371.467 192 376.533 192 382.8V384.2H157.8C158.067 387.267 159.133 389.667 161 391.4C162.867 393.133 165.267 394 168.2 394C172.2 394 175.2 392.267 177.2 388.8H191.4C190.067 393.333 187.467 397 183.6 399.8C179.733 402.6 174.8 404 168.8 404C164 404 159.733 403 156 401C152.267 399 149.333 396.2 147.2 392.6C145.067 389 144 386.533 144 381.8C144 377.933 145.667 372.2 149 384ZM158.2 376.8H178.2C177.933 373.867 176.867 371.6 175 370C173.133 368.4 170.867 367.6 168.2 367.6C165.4 367.6 163.067 368.4 161.2 370C159.333 371.6 158.333 373.867 158.2 376.8Z" fill="#ffffff" />
  <path d="M210.978 380.4L207.778 403H198.178L207.778 362.8H218.578L228.178 403H218.578L215.378 380.4L213.178 370.4L210.978 380.4Z" fill="#ffffff" />
  <path d="M266.325 377V403H256.925V399.4C254.525 402.467 251.058 404 246.525 404C243.458 404 240.725 403.267 238.325 401.8C235.925 400.333 234.058 398.267 232.725 395.6C231.392 392.933 230.725 389.933 230.725 386.6V362.8H240.125V384.8C240.125 387.733 240.792 389.933 242.125 391.4C243.458 392.867 245.325 393.6 247.725 393.6C250.258 393.6 252.258 392.8 253.725 391.2C255.192 389.6 255.925 387.2 255.925 384V362.8H266.325V377Z" fill="#ffffff" />
  <path d="M309.03 381.8C309.03 386.067 308.163 389.733 306.43 392.8C304.697 395.867 302.297 398.2 299.23 399.8C296.163 401.4 292.63 402.2 288.63 402.2C284.63 402.2 281.097 401.4 278.03 399.8C274.963 398.2 272.563 395.867 270.83 392.8C269.097 389.733 268.23 386.067 268.23 381.8C268.23 377.533 269.097 373.867 270.83 370.8C272.563 367.733 274.963 365.4 278.03 363.8C281.097 362.2 284.63 361.4 288.63 361.4C292.63 361.4 296.163 362.2 299.23 363.8C302.297 365.4 304.697 367.733 306.43 370.8C308.163 373.867 309.03 377.533 309.03 381.8ZM299.43 381.8C299.43 379.267 298.83 377.267 297.63 375.8C296.43 374.333 294.763 373.6 292.63 373.6C290.497 373.6 288.83 374.333 287.63 375.8C286.43 377.267 285.83 379.267 285.83 381.8C285.83 384.333 286.43 386.333 287.63 387.8C288.83 389.267 290.497 390 292.63 390C294.763 390 296.43 389.267 297.63 387.8C298.83 386.333 299.43 384.333 299.43 381.8Z" fill="#ffffff" />
  <path d="M330.881 371.8L324.481 403H308.281L318.481 345.4H339.481L330.881 371.8Z" fill="#ffffff" />
  
  <!-- Definizione del gradiente -->
  <defs>
    <linearGradient id="paint0_linear" x1="76" y1="40" x2="436" y2="400" gradientUnits="userSpaceOnUse">
      <stop offset="0" stop-color="#4FC1E9" />
      <stop offset="1" stop-color="#5D9CEC" />
    </linearGradient>
  </defs>
</svg> 