<svg xmlns="http://www.w3.org/2000/svg" viewBox="0 0 24 24" width="24" height="24">
  <defs>
    <linearGradient id="gradient" x1="0%" y1="0%" x2="100%" y2="100%">
      <stop offset="0%" stop-color="#3B82F6" />
      <stop offset="100%" stop-color="#1E40AF" />
    </linearGradient>
  </defs>
  <circle cx="12" cy="12" r="11" fill="url(#gradient)" />
  <path d="M15.5,7c-1.5-1.5-4.5-1-5.5,1c-1-2-4-2.5-5.5-1C2,9.5,6,13,10,16c4-3,8-6.5,5.5-9z" fill="#FFFFFF" opacity="0.8" />
  <path d="M16,10c-0.5-0.5-1.5-0.6-2,0.3c-0.9,1.8-2.5,2.2-4,1.2c-1.5-1-2.2-3.4-1-5c1-1.3,2.8-1.5,4-0.5
   c0.4,0.3,0.8,0.3,1.1,0l0.2-0.2c0.3-0.3,0.3-0.8,0-1.1c-1.4-1.4-3.7-1.4-5.3-0.4c-0.8-0.5-1.7-0.7-2.6-0.7c-1.3,0-2.6,0.5-3.5,1.4
   c-1.2,1.2-1.8,2.9-1.5,4.6c0.3,1.7,1.3,3.3,3.1,4.6c1.3,0.9,2.8,1.8,4.5,2.8c0.3,0.2,0.6,0.2,0.9,0c1.7-1,3.2-1.9,4.5-2.8
   c1.7-1.3,2.8-2.9,3.1-4.6C17,11.5,16.8,10.8,16,10z" fill="#FFFFFF" />
</svg> 