<?xml version="1.0" encoding="UTF-8"?>
<svg width="100%" height="100%" xmlns="http://www.w3.org/2000/svg">
  <defs>
    <pattern id="pattern" width="60" height="60" patternUnits="userSpaceOnUse">
      <path d="M30 5 L55 30 L30 55 L5 30 Z" stroke="rgba(255,255,255,0.15)" stroke-width="1" fill="none"/>
      <circle cx="30" cy="30" r="3" fill="rgba(255,255,255,0.1)"/>
      <circle cx="30" cy="5" r="2" fill="rgba(255,255,255,0.1)"/>
      <circle cx="55" cy="30" r="2" fill="rgba(255,255,255,0.1)"/>
      <circle cx="30" cy="55" r="2" fill="rgba(255,255,255,0.1)"/>
      <circle cx="5" cy="30" r="2" fill="rgba(255,255,255,0.1)"/>
    </pattern>
    <linearGradient id="grad" x1="0%" y1="0%" x2="100%" y2="100%">
      <stop offset="0%" stop-color="rgba(255,255,255,0.05)"/>
      <stop offset="100%" stop-color="rgba(255,255,255,0)"/>
    </linearGradient>
  </defs>
  <rect width="100%" height="100%" fill="url(#pattern)"/>
  <rect width="100%" height="100%" fill="url(#grad)"/>
  <g transform="translate(25%, 25%)">
    <path d="M0,40 Q40,20 80,40 T160,40 T240,40 T320,40" stroke="rgba(255,255,255,0.08)" stroke-width="2" fill="none"/>
    <path d="M0,50 Q40,30 80,50 T160,50 T240,50 T320,50" stroke="rgba(255,255,255,0.05)" stroke-width="2" fill="none"/>
    <path d="M0,60 Q40,40 80,60 T160,60 T240,60 T320,60" stroke="rgba(255,255,255,0.03)" stroke-width="2" fill="none"/>
  </g>
  <circle cx="80%" cy="20%" r="5" fill="rgba(255,255,255,0.1)"/>
  <circle cx="75%" cy="22%" r="8" fill="rgba(255,255,255,0.05)"/>
  <circle cx="85%" cy="18%" r="12" fill="rgba(255,255,255,0.03)"/>
  <circle cx="15%" cy="85%" r="10" fill="rgba(255,255,255,0.03)"/>
  <circle cx="10%" cy="80%" r="6" fill="rgba(255,255,255,0.05)"/>
  <circle cx="20%" cy="82%" r="4" fill="rgba(255,255,255,0.1)"/>
</svg> 