<?xml version="1.0" encoding="UTF-8"?>
<svg width="512" height="512" viewBox="0 0 512 512" fill="none" xmlns="http://www.w3.org/2000/svg">
  <rect width="512" height="512" rx="24" fill="#F0F4FD"/>
  <circle cx="256" cy="256" r="150" fill="#6366F1" opacity="0.2"/>
  <path d="M256 176C214.026 176 180 210.026 180 252C180 293.974 214.026 328 256 328" stroke="#4F46E5" stroke-width="12" stroke-linecap="round"/>
  <path d="M256 328C297.974 328 332 293.974 332 252C332 210.026 297.974 176 256 176" stroke="#4F46E5" stroke-width="12" stroke-linecap="round" stroke-dasharray="24 24"/>
  <circle cx="256" cy="176" r="16" fill="#4F46E5"/>
  <circle cx="256" cy="328" r="16" fill="#4F46E5"/>
  <path d="M236 232L236 272" stroke="#4F46E5" stroke-width="12" stroke-linecap="round"/>
  <path d="M236 232L276 252L236 272" stroke="#4F46E5" stroke-width="12" stroke-linecap="round" stroke-linejoin="round"/>
  <rect x="120" y="120" width="272" height="32" rx="16" fill="#4F46E5" opacity="0.8"/>
  <rect x="120" y="160" width="180" height="16" rx="8" fill="#4F46E5" opacity="0.6"/>
  <rect x="120" y="360" width="272" height="32" rx="16" fill="#4F46E5" opacity="0.8"/>
  <rect x="120" y="400" width="220" height="16" rx="8" fill="#4F46E5" opacity="0.6"/>
</svg> 