<?xml version="1.0" encoding="UTF-8"?>
<svg width="512" height="512" viewBox="0 0 512 512" fill="none" xmlns="http://www.w3.org/2000/svg">
  <rect width="512" height="512" rx="24" fill="#F0F9FF"/>
  <circle cx="256" cy="256" r="150" fill="#0EA5E9" opacity="0.2"/>
  <path d="M160 280C160 280 192 200 240 200C288 200 304 320 336 320C368 320 400 240 400 240" stroke="#0284C7" stroke-width="12" stroke-linecap="round" stroke-linejoin="round"/>
  <circle cx="160" cy="280" r="12" fill="#0284C7"/>
  <circle cx="240" cy="200" r="12" fill="#0284C7"/>
  <circle cx="336" cy="320" r="12" fill="#0284C7"/>
  <circle cx="400" cy="240" r="12" fill="#0284C7"/>
  <rect x="120" y="120" width="272" height="32" rx="16" fill="#0284C7" opacity="0.8"/>
  <rect x="120" y="160" width="180" height="16" rx="8" fill="#0284C7" opacity="0.6"/>
  <rect x="120" y="360" width="272" height="32" rx="16" fill="#0284C7" opacity="0.8"/>
  <rect x="120" y="400" width="220" height="16" rx="8" fill="#0284C7" opacity="0.6"/>
</svg> 